Fly_normalized_Motion_pl10
version=1
nRows=21
nColumns=43
inDegrees=yes
endheader
time		pelvis_tilt		pelvis_list		pelvis_rotation		pelvis_tx		pelvis_ty		pelvis_tz		hip_flexion_r		hip_adduction_r		hip_rotation_r		knee_angle_r		ankle_angle_r		subtalar_angle_r		mtp_angle_r		hip_flexion_l		hip_adduction_l		hip_rotation_l		knee_angle_l		ankle_angle_l		subtalar_angle_l		mtp_angle_l		lumbar_extension		lumbar_bending		lumbar_rotation		neck_flexion		neck_lateral_bending		neck_rotation		arm_flex_r		arm_add_r		arm_rot_r		elbow_flex_r		pro_sup_r		wrist_flex_r		wrist_dev_r		hand_finger_flex_r		arm_flex_l		arm_add_l		arm_rot_l		elbow_flex_l		pro_sup_l		wrist_flex_l		wrist_dev_l		hand_finger_flex_l		
0.464141		8.631856		-9.426221		91.600814		-0.029876		1.641323		1.175621		64.926049		-1.883029		-10.373298		-89.895158		-12.280622		-6.712400		23.437626		39.686519		-12.297884		3.930731		-105.707685		-9.267331		-1.396327		24.885676		-28.206289		5.733544		2.833662		-2.809075		8.276462		0.118743		69.080931		-42.541188		29.486234		70.989225		112.760933		3.643810		0.733084		-24.959989		64.613982		-34.641679		24.724786		74.072546		110.828255		-7.597995		0.256868		-13.967437		
0.468207		8.607397		-9.303020		91.610543		-0.029801		1.638621		1.168228		64.371134		-1.826575		-10.465061		-88.386494		-12.558793		-6.682250		23.441702		39.810238		-12.384652		3.358998		-104.305351		-9.336367		-1.423417		24.552476		-28.243267		5.802117		2.793930		-2.969156		8.092705		0.085305		67.733896		-43.162111		28.932091		71.031200		113.368914		3.646247		0.550629		-25.012704		62.926836		-35.955836		24.602682		75.014197		110.593983		-8.040330		0.511752		-13.792931		
0.472273		8.572912		-9.193678		91.622641		-0.029660		1.635774		1.160868		63.810079		-1.767529		-10.541625		-86.869116		-12.809908		-6.539291		23.522076		39.941339		-12.496490		2.755557		-102.876054		-9.156956		-1.101189		24.309181		-28.305638		5.840998		2.733521		-2.948655		7.958698		0.073282		66.301954		-43.718048		28.224424		71.057963		113.834098		3.606349		0.421532		-25.135720		61.065583		-37.303226		24.272295		76.099003		110.435266		-8.529234		0.779248		-13.820870		
0.476338		8.484749		-9.081193		91.637488		-0.029550		1.632614		1.153487		63.250341		-1.762912		-10.561041		-85.377300		-13.046310		-6.363851		23.784282		40.051952		-12.531116		2.152037		-101.453919		-8.820524		-0.437856		24.062293		-28.356774		5.824659		2.505684		-3.059267		7.856754		0.295824		65.045498		-44.216430		27.796713		70.995619		114.645442		3.988368		0.278313		-25.236953		59.021815		-38.915503		23.771360		77.391021		110.501056		-8.701978		1.280852		-13.804520		
0.480404		8.431256		-8.967226		91.716314		-0.029488		1.629455		1.146131		62.646453		-1.755672		-10.586557		-83.811698		-13.403773		-6.104049		24.133930		40.163155		-12.549448		1.613068		-99.967332		-8.476048		0.200678		23.857313		-28.445876		5.851864		2.219336		-2.975509		7.817019		0.413727		63.653983		-44.611551		27.170175		70.888080		115.322141		4.169280		0.113399		-25.527026		56.699468		-40.410174		22.814693		78.673981		110.681625		-8.969591		1.540823		-13.903572		
0.484470		8.356514		-8.872578		91.773423		-0.029395		1.625996		1.138806		62.057970		-1.757351		-10.594717		-82.253329		-13.714561		-5.896047		24.825336		40.288359		-12.597511		1.013656		-98.466828		-8.138817		1.031026		23.949506		-28.513175		5.872246		1.838785		-2.975185		7.653314		0.804382		62.489712		-44.991156		26.903923		70.749190		115.955337		4.697431		0.089432		-26.016150		54.195550		-42.032891		21.519610		79.986152		111.475837		-8.642570		1.838223		-13.830917		
0.488535		8.313914		-8.762617		91.960761		-0.029505		1.622384		1.131519		61.431528		-1.878524		-10.706588		-80.683385		-14.191309		-5.651407		25.086146		40.456605		-12.574224		0.504629		-96.944612		-8.139422		1.368694		24.016499		-28.539940		5.939374		1.681066		-3.219830		7.647027		0.776907		61.075771		-45.912698		26.736899		70.732837		116.076705		4.795818		0.054432		-26.295651		52.261171		-43.253639		21.001570		80.639048		111.733353		-8.697134		1.790921		-13.833412		
0.492601		8.277656		-8.685352		92.084239		-0.029504		1.618724		1.124172		60.806631		-1.907204		-10.753191		-79.044053		-14.725393		-5.430698		25.461338		40.591130		-12.596475		-0.046761		-95.333928		-8.188846		1.750763		24.182668		-28.577991		5.996761		1.546811		-3.227232		7.560236		0.815250		59.482954		-46.714468		26.255599		70.785970		116.157977		4.893267		0.112798		-26.670268		50.138682		-44.443279		20.222133		81.329239		112.039961		-8.860349		1.863209		-13.695620		
0.496667		8.244323		-8.625278		92.255846		-0.029579		1.614663		1.116779		60.208604		-1.996889		-10.831645		-77.465242		-15.218823		-5.283840		25.791817		40.736730		-12.576266		-0.559848		-93.698335		-8.387278		1.859450		24.301721		-28.524475		6.089026		1.447524		-3.531296		7.420845		0.802490		57.964013		-47.748334		26.113951		70.802326		116.290841		5.194221		0.121997		-26.896096		48.293670		-45.682669		19.933837		81.800656		112.274378		-8.954425		2.045022		-13.473544		
0.500732		8.214009		-8.590987		92.419208		-0.029613		1.610493		1.109393		59.597441		-2.056956		-10.889017		-75.789721		-15.792529		-5.170079		26.093328		40.903801		-12.563282		-1.081234		-92.050119		-8.731921		1.779688		24.347562		-28.467134		6.172392		1.385029		-3.717226		7.242339		0.737391		56.233346		-48.752157		25.664940		70.852344		116.395127		5.483570		0.124868		-27.060912		46.348874		-46.868107		19.597958		82.310041		112.404287		-9.293454		2.424534		-13.322782		
0.504798		8.172562		-8.561910		92.630504		-0.029711		1.605934		1.101994		59.015934		-2.181388		-10.970807		-74.206229		-16.251149		-5.094202		26.294572		41.064540		-12.534111		-1.599397		-90.383259		-9.045494		1.673716		24.332454		-28.359567		6.259532		1.326604		-4.095675		7.114926		0.652431		54.561754		-49.960138		25.514841		70.897981		116.494105		5.868199		0.111060		-27.097448		44.568853		-48.172956		19.608191		82.760132		112.489401		-9.469313		2.727972		-13.186544		
0.508864		8.123281		-8.577622		92.809759		-0.029717		1.601289		1.094585		58.439689		-2.246520		-10.977592		-72.507458		-16.854489		-5.106176		26.530029		41.220546		-12.481276		-2.121234		-88.635214		-9.559782		1.311047		24.187162		-28.268383		6.316493		1.269615		-4.156961		6.910809		0.497499		52.535289		-51.009062		24.751816		71.074345		116.519504		6.380640		0.163444		-27.133543		42.432391		-49.427614		19.208294		83.431364		112.511223		-9.881818		3.352524		-13.140199		
0.512929		8.052714		-8.588966		93.025959		-0.029754		1.596312		1.087208		57.872849		-2.370567		-10.998449		-70.865243		-17.339763		-5.141888		26.702157		41.364804		-12.408939		-2.638906		-86.890017		-9.960349		1.076645		23.981584		-28.156471		6.359958		1.201795		-4.348631		6.741686		0.331362		50.560879		-52.222840		24.272684		71.267771		116.536058		6.978483		0.259049		-27.180248		40.411055		-50.784903		19.001525		84.037153		112.528029		-9.998761		3.768975		-13.043238		
0.516995		7.992218		-8.590632		93.256434		-0.029799		1.591179		1.079826		57.278033		-2.491019		-11.027445		-69.204575		-17.803240		-5.225885		26.726845		41.474000		-12.334282		-3.134438		-85.107102		-10.356560		0.912499		23.755678		-28.079210		6.420166		1.144107		-4.452508		6.509161		0.089191		48.443506		-53.483162		23.732919		71.533713		116.392552		7.424306		0.405056		-27.259331		38.283675		-52.150212		18.673355		84.645505		112.489768		-10.062460		4.039068		-13.002389		
0.521061		7.905405		-8.614100		93.479148		-0.029762		1.585793		1.072424		56.706330		-2.612435		-11.023702		-67.553273		-18.253755		-5.443971		26.745502		41.565592		-12.224459		-3.620364		-83.289422		-10.716393		0.809492		23.370328		-28.018733		6.435377		1.070761		-4.378123		6.284468		-0.176948		46.079352		-54.727002		22.859007		71.982841		116.338613		8.141003		0.711806		-27.451464		35.962154		-53.579936		18.092325		85.393964		112.500833		-9.950415		4.363320		-12.906412		
0.525126		7.819190		-8.624590		93.720656		-0.029705		1.580249		1.065031		56.098273		-2.741930		-11.049644		-65.888911		-18.638082		-5.680321		26.692659		41.623019		-12.107030		-4.075556		-81.437090		-11.007560		0.845057		22.958012		-27.969169		6.448073		0.990850		-4.328591		6.047466		-0.455141		43.618054		-55.983302		21.927261		72.406600		116.397575		8.770804		0.964107		-27.685113		33.614202		-55.020907		17.533709		86.083701		112.585341		-9.857839		4.590190		-12.875420		
0.529192		7.725987		-8.614493		93.960109		-0.029707		1.574501		1.057610		55.480749		-2.889991		-11.082885		-64.256986		-18.964185		-5.931266		26.566146		41.622692		-11.945688		-4.505873		-79.577064		-11.255769		0.968812		22.538539		-27.936363		6.461097		0.910863		-4.349912		5.827513		-0.708253		40.969849		-57.209288		20.877544		72.834740		116.587032		9.385667		1.172672		-27.839696		31.187332		-56.520463		16.950218		86.762630		112.762510		-9.790062		4.812771		-12.899280		
0.533258		7.609345		-8.593240		94.201162		-0.029650		1.568590		1.050171		54.840691		-3.042875		-11.108607		-62.621948		-19.238929		-6.192982		26.370489		41.565203		-11.758398		-4.923924		-77.669014		-11.481847		1.147728		22.121934		-27.910812		6.440349		0.806443		-4.383341		5.612837		-0.926402		38.113575		-58.372959		19.585000		73.269777		116.863603		9.979152		1.360210		-27.899950		28.587153		-58.016034		16.216034		87.457100		113.051431		-9.744640		5.042603		-12.980018		
0.537323		7.475515		-8.560470		94.441460		-0.029554		1.562525		1.042719		54.182364		-3.198869		-11.125760		-60.990237		-19.460075		-6.424973		26.102252		41.446422		-11.559972		-5.360101		-75.717912		-11.705734		1.386566		21.700689		-27.882248		6.395046		0.693766		-4.490189		5.401018		-1.099622		35.066195		-59.478067		18.132168		73.683350		117.207395		10.582329		1.531069		-27.896456		25.822411		-59.492739		15.319069		88.138464		113.497399		-9.627228		5.237211		-13.113105		
0.541389		7.335094		-8.517650		94.659010		-0.029408		1.556296		1.035227		53.505307		-3.340260		-11.138145		-59.363516		-19.629513		-6.610310		25.753557		41.253138		-11.367260		-5.802720		-73.708198		-11.965188		1.693249		21.285216		-27.844820		6.335491		0.587275		-4.675836		5.191162		-1.234441		31.827594		-60.527522		16.553629		74.092319		117.526767		11.131712		1.692220		-27.906734		22.813224		-60.942255		14.199755		88.780569		114.110648		-9.402133		5.353815		-13.327540		
0.545455		7.201098		-8.460692		94.858428		-0.029219		1.549911		1.027681		52.807738		-3.457691		-11.149562		-57.744197		-19.765692		-6.749686		25.360856		41.000343		-11.189801		-6.235902		-71.669227		-12.284610		2.049777		20.906032		-27.808117		6.273507		0.490618		-4.916169		4.986689		-1.345348		28.397257		-61.541975		14.899995		74.509787		117.737523		11.538230		1.848992		-27.983091		19.545917		-62.368930		12.852719		89.398793		114.820131		-9.145967		5.397038		-13.621915		
